<svg width="340" height="77" viewBox="0 0 340 77" fill="none" xmlns="http://www.w3.org/2000/svg">
<path fill-rule="evenodd" clip-rule="evenodd" d="M33.39 64.1712C34.84 63.7384 36.0593 63.1392 37.0479 62.3735C38.0366 61.6078 38.7945 60.6923 39.3218 59.627C39.8491 58.5284 40.1127 57.3299 40.1127 56.0316C40.1127 54.7333 39.882 53.5182 39.4207 52.3863C38.9922 51.2544 38.2508 50.1891 37.1962 49.1904C36.1087 48.2249 34.6917 47.3427 32.9451 46.5438C31.2314 45.7115 29.0894 44.9458 26.5189 44.2467C22.5314 43.1481 19.0217 41.8165 15.9899 40.2518C12.9911 38.6872 10.5359 36.9727 8.62457 35.1084C6.7132 33.2441 5.2632 31.1801 4.27456 28.9163C3.31888 26.6526 2.84103 24.1891 2.84103 21.5258C2.84103 18.4631 3.48365 15.6833 4.76888 13.1865C6.05411 10.6897 7.83366 8.5591 10.1075 6.79469C12.3814 5.03028 15.0672 3.68201 18.1649 2.74987C21.2627 1.78444 24.624 1.30173 28.249 1.30173C32.0059 1.30173 35.4331 1.85102 38.5309 2.94962C41.6616 4.04821 44.3474 5.57958 46.5883 7.54373C48.8292 9.54117 50.5758 11.9048 51.8281 14.6346C52.9938 17.1758 53.6169 19.9476 53.6975 22.9503C53.7035 23.1733 53.7065 23.3976 53.7065 23.6231H40.1621C40.0962 21.9919 39.7996 20.4938 39.2724 19.1289C38.778 17.764 38.0366 16.5822 37.0479 15.5834C36.0263 14.618 34.7576 13.869 33.2417 13.3363C31.7587 12.7704 30.0121 12.4874 28.0019 12.4874C26.1564 12.4874 24.5087 12.7204 23.0587 13.1865C21.6416 13.6193 20.4388 14.2352 19.4502 15.0341C18.4615 15.8664 17.7036 16.8485 17.1763 17.9804C16.682 19.079 16.4348 20.2774 16.4348 21.5758C16.4348 22.9407 16.7644 24.1724 17.4234 25.271C18.1155 26.3696 19.1041 27.3517 20.3894 28.2172C21.6746 29.1161 23.2235 29.9317 25.036 30.6641C26.8814 31.3965 28.9576 32.079 31.2644 32.7115C33.736 33.4106 36.0922 34.2595 38.3331 35.2582C40.5741 36.2569 42.6337 37.4055 44.5121 38.7038C47.3462 40.8344 49.6036 43.3146 51.2843 46.1443C52.965 48.974 53.8053 52.2365 53.8053 55.9317C53.8053 59.1276 53.1627 61.974 51.8775 64.4708C50.6252 66.9343 48.8786 69.015 46.6377 70.7128C44.3968 72.4439 41.7275 73.7589 38.6297 74.6577C35.532 75.5233 32.1542 75.9561 28.4962 75.9561C24.9041 75.9561 21.345 75.4234 17.8189 74.3581C14.3257 73.2595 11.2774 71.6616 8.674 69.5643C6.2024 67.5003 4.24161 65.07 2.7916 62.2736C1.45969 59.6452 0.753726 56.5904 0.673703 53.109C0.668588 52.8865 0.66603 52.6622 0.66603 52.4362H14.3092C14.3751 54.6334 14.7541 56.5143 15.4462 58.079C16.1382 59.6437 17.1104 60.9253 18.3627 61.9241C19.582 62.9228 21.0485 63.6552 22.7621 64.1212C24.5087 64.5873 26.4201 64.8204 28.4962 64.8204C30.3417 64.8204 31.9729 64.604 33.39 64.1712ZM22.9339 63.4712C21.2991 63.0264 19.9198 62.3333 18.7821 61.4014L18.7788 61.3987L18.7754 61.396C17.6129 60.4689 16.7053 59.2764 16.0543 57.8045C15.4061 56.3391 15.039 54.5491 14.975 52.4158L14.9554 51.7634H0V52.4362C0 56.2838 0.724991 59.6719 2.19871 62.5802L2.20161 62.5858C3.69378 65.4635 5.71163 67.9634 8.24964 70.0828L8.25416 70.0866L8.25874 70.0903C10.9329 72.2446 14.0566 73.8796 17.6209 75.0005L17.6245 75.0017L17.6281 75.0027C21.2146 76.0863 24.8379 76.6289 28.4962 76.6289C32.206 76.6289 35.6444 76.19 38.8073 75.3062L38.8105 75.3053L38.8136 75.3044C41.979 74.386 44.725 73.0369 47.0402 71.2489C49.3582 69.492 51.1704 67.3342 52.4692 64.7797C53.8096 62.175 54.4714 59.2203 54.4714 55.9317C54.4714 52.1295 53.6054 48.7445 51.8554 45.7981C50.1264 42.8871 47.8079 40.3428 44.9098 38.1641L44.8992 38.1561L44.8882 38.1485C42.9735 36.8251 40.8776 35.6568 38.602 34.6426C36.3308 33.6304 33.9446 32.7709 31.444 32.0636L31.4389 32.0622C29.1517 31.435 27.0998 30.7602 25.2815 30.0387C23.5053 29.3208 22.0035 28.5278 20.7685 27.6641L20.7637 27.6607L20.7588 27.6574C19.5382 26.8354 18.6225 25.9191 17.9893 24.916C17.3997 23.9308 17.1008 22.8231 17.1008 21.5758C17.1008 20.3677 17.33 19.2663 17.7808 18.2628C18.2641 17.2269 18.9582 16.3253 19.8714 15.5553C20.7826 14.8202 21.9046 14.2419 23.2514 13.8305L23.256 13.8291L23.2606 13.8277C24.6332 13.3865 26.2109 13.1602 28.0019 13.1602C29.9523 13.1602 31.6157 13.435 33.0063 13.9657L33.0145 13.9689L33.0229 13.9718C34.4597 14.4767 35.6417 15.1783 36.5848 16.0671C37.499 16.9929 38.1862 18.0879 38.6469 19.3601L38.6493 19.3668L38.6519 19.3735C39.1495 20.6616 39.4334 22.0853 39.4967 23.6506L39.5227 24.296H54.3725V23.6231C54.3725 20.2713 53.7286 17.1775 52.4324 14.3518C51.1412 11.5371 49.3388 9.09808 47.029 7.03921L47.0248 7.03553C44.713 5.00931 41.9513 3.43773 38.7503 2.31437C35.5726 1.18757 32.0699 0.628906 28.249 0.628906C24.5665 0.628906 21.1392 1.11918 17.9718 2.10596C14.8072 3.05857 12.0471 4.44125 9.70181 6.26111C7.35314 8.08356 5.50939 10.2896 4.17797 12.8761C2.83912 15.4771 2.175 18.3648 2.175 21.5258C2.175 24.2723 2.6682 26.8264 3.66192 29.1803L3.66353 29.1841L3.6652 29.1879C4.69152 31.538 6.1938 33.6728 8.16195 35.5924C10.1305 37.5125 12.6426 39.2626 15.6843 40.8496L15.6869 40.851C18.7671 42.4406 22.321 43.7875 26.3437 44.8958L26.3458 44.8964C28.8909 45.5886 30.9913 46.3414 32.6565 47.1502L32.6634 47.1535L32.6703 47.1567C34.3708 47.9345 35.7245 48.7814 36.7486 49.6887C37.7401 50.6296 38.4138 51.6101 38.7985 52.6266L38.8016 52.6346L38.8048 52.6425C39.231 53.6882 39.4467 54.8158 39.4467 56.0316C39.4467 57.2333 39.2037 58.3293 38.7243 59.3296C38.2448 60.297 37.5547 61.1332 36.6427 61.8395C35.7311 62.5456 34.5892 63.1117 33.2012 63.5259L33.1972 63.5271C31.8559 63.9368 30.2917 64.1475 28.4962 64.1475C26.4698 64.1475 24.617 63.9201 22.9339 63.4712ZM127.225 14.4086H105.03V75.6801H89.7585V14.4086H67.8601V1.62763H127.225V14.4086ZM68.5262 13.7358V2.30045H126.559V13.7358H104.364V75.0073H90.4245V13.7358H68.5262ZM184.187 75.0073L179.985 59.8267H158.383L154.132 75.0073H139.501L163.08 2.30045H175.685L198.819 75.0073H184.187ZM158.887 60.4996L154.636 75.6801H138.581L162.597 1.62763H176.17L199.732 75.6801H183.682L179.48 60.4996H158.887ZM161.794 47.892H176.723L169.357 21.1263L161.794 47.892ZM162.677 47.2192H175.846L169.349 23.6076L162.677 47.2192ZM253.481 75.0073L239.936 47.8421H229.407V75.0073H215.517V2.30045H239.64C243.627 2.30045 247.236 2.78316 250.465 3.74859C253.695 4.68073 256.463 6.0623 258.77 7.89328C261.044 9.72427 262.79 12.0047 264.01 14.7345C265.262 17.4644 265.888 20.627 265.888 24.2224C265.888 26.819 265.575 29.166 264.949 31.2633C264.356 33.3274 263.499 35.175 262.378 36.8062C261.225 38.4708 259.841 39.9189 258.226 41.1507C256.807 42.2555 255.229 43.2264 253.492 44.0634C253.293 44.1596 253.091 44.254 252.887 44.3466L268.36 74.3581V75.0073H253.481ZM253.8 44.6605L269.026 74.1934V75.6801H253.07L239.526 48.5149H230.073V75.6801H214.851V1.62763H239.64C243.679 1.62763 247.351 2.11634 250.651 3.10252C253.951 4.05517 256.798 5.47269 259.181 7.36423L259.185 7.36714C261.542 9.26533 263.353 11.6307 264.615 14.4545C265.914 17.2879 266.554 20.5493 266.554 24.2224C266.554 26.8719 266.235 29.2848 265.587 31.4548C264.976 33.5815 264.09 35.495 262.926 37.1898L262.924 37.1921C261.731 38.9139 260.299 40.4123 258.63 41.6859C257.177 42.8163 255.567 43.8075 253.8 44.6605ZM248.488 16.3824C247.466 15.5168 246.214 14.851 244.731 14.385C243.248 13.9189 241.551 13.6859 239.64 13.6859H229.407V36.4567H239.689C241.831 36.4567 243.71 36.1571 245.324 35.5578C246.972 34.9253 248.307 34.0265 249.328 32.8613C250.185 31.9292 250.828 30.8139 251.256 29.5156C251.718 28.2172 251.948 26.7691 251.948 25.1711C251.948 23.2403 251.652 21.5425 251.058 20.0777C250.498 18.5796 249.641 17.3478 248.488 16.3824ZM245.092 34.9274C246.652 34.328 247.89 33.487 248.83 32.4152L248.835 32.4093L248.84 32.4035C249.628 31.5469 250.224 30.5171 250.624 29.3028L250.627 29.2955L250.629 29.2883C251.061 28.0734 251.282 26.7037 251.282 25.1711C251.282 23.309 250.996 21.7007 250.442 20.3324L250.439 20.324L250.435 20.3154C249.914 18.92 249.122 17.7871 248.063 16.9005L248.06 16.8979C247.116 16.0983 245.946 15.4713 244.533 15.0274C243.127 14.5855 241.499 14.3587 239.64 14.3587H230.073V35.7839H239.689C241.77 35.7839 243.567 35.4928 245.092 34.9274ZM340 14.4086H317.805V75.6801H302.533V14.4086H280.635V1.62763H340V14.4086ZM281.301 13.7358V2.30045H339.334V13.7358H317.139V75.0073H303.199V13.7358H281.301Z" fill="#FFBE2E" fill-opacity="0.2"/>
</svg>
