<svg width="770" height="171" viewBox="0 0 770 171" fill="none" xmlns="http://www.w3.org/2000/svg">
<path fill-rule="evenodd" clip-rule="evenodd" d="M75.6184 142.97C78.9023 141.996 81.6637 140.648 83.9026 138.925C86.1416 137.203 87.8582 135.143 89.0523 132.746C90.2464 130.274 90.8435 127.577 90.8435 124.656C90.8435 121.735 90.321 119.001 89.2762 116.454C88.306 113.907 86.6267 111.51 84.2385 109.263C81.7756 107.091 78.5664 105.106 74.6109 103.308C70.73 101.436 65.8789 99.713 60.0576 98.1401C51.027 95.6682 43.0787 92.6721 36.2125 89.1516C29.4209 85.6311 23.8608 81.7735 19.5321 77.5789C15.2034 73.3843 11.9196 68.7402 9.68062 63.6468C7.51628 58.5533 6.43411 53.0104 6.43411 47.0181C6.43411 40.1269 7.88944 33.8724 10.8001 28.2546C13.7108 22.6368 17.7409 17.8429 22.8906 13.873C28.0402 9.9031 34.1228 6.86949 41.1382 4.77218C48.1537 2.59996 55.7662 1.51385 63.9758 1.51385C72.4839 1.51385 80.2456 2.74977 87.2611 5.2216C94.3512 7.69343 100.434 11.139 105.509 15.5584C110.584 20.0526 114.539 25.3708 117.375 31.5129C120.015 37.2304 121.427 43.4672 121.609 50.2232C121.623 50.7249 121.629 51.2295 121.629 51.737H90.9554C90.8061 48.0667 90.1345 44.696 88.9403 41.625C87.8208 38.5539 86.1416 35.8948 83.9026 33.6477C81.589 31.4755 78.7157 29.7901 75.2826 28.5917C71.9241 27.3183 67.9686 26.6816 63.416 26.6816C59.2366 26.6816 55.505 27.2059 52.2211 28.2546C49.0119 29.2283 46.2879 30.6141 44.0489 32.4118C41.8099 34.2844 40.0934 36.494 38.8992 39.0408C37.7798 41.5126 37.22 44.2092 37.22 47.1304C37.22 50.2015 37.9663 52.9729 39.459 55.4448C41.0263 57.9166 43.2652 60.1263 46.1759 62.0738C49.0866 64.0962 52.5943 65.9313 56.6991 67.5792C60.8785 69.2271 65.5804 70.7626 70.8046 72.1858C76.4021 73.7588 81.7383 75.6688 86.8133 77.916C91.8883 80.1631 96.5528 82.7473 100.807 85.6685C107.225 90.4624 112.338 96.0427 116.144 102.41C119.95 108.776 121.853 116.117 121.853 124.431C121.853 131.622 120.398 138.026 117.487 143.644C114.651 149.187 110.696 153.869 105.621 157.689C100.546 161.584 94.5005 164.542 87.485 166.565C80.4695 168.512 72.8197 169.486 64.5355 169.486C56.4006 169.486 48.3403 168.288 40.3546 165.891C32.4435 163.419 25.54 159.824 19.6441 155.105C14.0466 150.461 9.60599 144.993 6.32216 138.701C3.30577 132.787 1.70697 125.913 1.52574 118.08C1.51415 117.58 1.50836 117.075 1.50836 116.566H32.4062C32.5555 121.51 33.4138 125.742 34.981 129.263C36.5483 132.783 38.75 135.667 41.586 137.914C44.3474 140.161 47.6686 141.809 51.5494 142.858C55.505 143.906 59.8337 144.431 64.5355 144.431C68.7149 144.431 72.4092 143.944 75.6184 142.97ZM51.9386 141.395C48.2362 140.394 45.1126 138.835 42.536 136.738L42.5284 136.732L42.5207 136.726C39.888 134.64 37.8325 131.957 36.3582 128.645C34.8903 125.348 34.0588 121.32 33.9139 116.521L33.8696 115.053H0V116.566C0 125.223 1.64189 132.847 4.97943 139.39L4.986 139.403C8.36533 145.878 12.9352 151.503 18.683 156.271L18.6932 156.28L18.7036 156.288C24.7598 161.135 31.834 164.814 39.9062 167.336L39.9143 167.339L39.9224 167.341C48.0448 169.779 56.2506 171 64.5355 171C72.9372 171 80.7241 170.012 87.8871 168.024L87.8943 168.022L87.9014 168.02C95.07 165.953 101.289 162.918 106.532 158.895C111.782 154.942 115.886 150.087 118.827 144.339C121.863 138.479 123.362 131.831 123.362 124.431C123.362 115.876 121.401 108.26 117.437 101.631C113.522 95.0809 108.271 89.3563 101.707 84.4541L101.683 84.4361L101.659 84.4191C97.3224 81.4414 92.5757 78.8128 87.4221 76.5309C82.2785 74.2534 76.8745 72.3195 71.2113 70.728L71.1998 70.7248C66.0201 69.3138 61.3732 67.7954 57.2551 66.172C53.2325 64.5568 49.8314 62.7725 47.0345 60.8291L47.0236 60.8215L47.0126 60.8142C44.2483 58.9646 42.1746 56.9029 40.7404 54.646C39.4053 52.4292 38.7284 49.9368 38.7284 47.1304C38.7284 44.4122 39.2473 41.9342 40.2684 39.6762C41.3628 37.3455 42.9347 35.3169 45.0028 33.5845C47.0665 31.9304 49.6076 30.6291 52.6576 29.7037L52.6681 29.7005L52.6785 29.6972C55.7869 28.7045 59.3599 28.1955 63.416 28.1955C67.8332 28.1955 71.6002 28.8138 74.7495 30.0078L74.7682 30.0149L74.7871 30.0215C78.041 31.1574 80.718 32.7361 82.8538 34.7359C84.9242 36.819 86.4804 39.2828 87.5238 42.1451L87.5293 42.1603L87.5352 42.1753C88.6621 45.0735 89.3051 48.2769 89.4483 51.7987L89.5074 53.2509H123.138V51.737C123.138 44.1954 121.68 37.2344 118.744 30.8764C115.82 24.5434 111.738 19.0556 106.507 14.4232L106.497 14.4149C101.262 9.85591 95.0073 6.31986 87.7581 3.79229C80.5615 1.25699 72.6288 0 63.9758 0C55.6358 0 47.8741 1.10313 40.7008 3.32337C33.5339 5.46674 27.2832 8.57777 21.9717 12.6725C16.6527 16.773 12.4771 21.7365 9.46186 27.5562C6.42976 33.4083 4.92575 39.9057 4.92575 47.0181C4.92575 53.1975 6.04268 58.9444 8.29316 64.2406L8.29683 64.2492L8.30059 64.2578C10.6249 69.5454 14.0271 74.3487 18.4844 78.668C22.9426 82.9881 28.6319 86.9259 35.5203 90.4966L35.5263 90.4997C42.5019 94.0763 50.5505 97.1069 59.6607 99.6006L59.6654 99.6019C65.4295 101.159 70.1862 102.853 73.9573 104.673L73.9729 104.68L73.9887 104.687C77.8397 106.438 80.9055 108.343 83.2248 110.385C85.4702 112.501 86.996 114.708 87.8673 116.995L87.8741 117.013L87.8814 117.03C88.8468 119.383 89.3351 121.92 89.3351 124.656C89.3351 127.36 88.7849 129.826 87.6992 132.077C86.6133 134.253 85.0503 136.135 82.9849 137.724C80.9204 139.312 78.3343 140.586 75.191 141.518L75.1819 141.521C72.1441 142.443 68.6019 142.917 64.5355 142.917C59.9463 142.917 55.7503 142.405 51.9386 141.395ZM288.128 31.0044H237.863V168.865H203.277V31.0044H153.683V2.24712H288.128V31.0044ZM155.192 29.4905V3.76097H286.619V29.4905H236.354V167.351H204.785V29.4905H155.192ZM417.129 167.351L407.614 133.195H358.692L349.064 167.351H315.928L369.327 3.76097H397.874L450.266 167.351H417.129ZM359.833 134.709L350.205 168.865H313.846L368.234 2.24712H398.974L452.335 168.865H415.985L406.469 134.709H359.833ZM366.417 106.342H400.225L383.545 46.1192L366.417 106.342ZM368.416 104.828H398.24L383.525 51.702L368.416 104.828ZM574.059 167.351L543.385 106.23H519.54V167.351H488.082V3.76097H542.713C551.744 3.76097 559.916 4.84708 567.23 7.0193C574.544 9.11661 580.813 12.2251 586.038 16.3448C591.187 20.4646 595.143 25.5955 597.904 31.7376C600.74 37.8798 602.158 44.9956 602.158 53.0853C602.158 58.9278 601.449 64.2085 600.031 68.9275C598.688 73.5715 596.747 77.7287 594.21 81.399C591.598 85.1442 588.463 88.4025 584.806 91.174C581.593 93.6598 578.019 95.8444 574.086 97.7276C573.634 97.944 573.177 98.1564 572.716 98.3648L607.756 165.891V167.351H574.059ZM574.783 99.0711L609.264 165.52V168.865H573.13L542.456 107.744H521.048V168.865H486.574V2.24712H542.713C551.86 2.24712 560.177 3.34672 567.651 5.56562C575.123 7.70909 581.572 10.8985 586.969 15.1545L586.978 15.161C592.316 19.432 596.418 24.7541 599.276 31.1076C602.218 37.4828 603.667 44.8209 603.667 53.0853C603.667 59.0468 602.944 64.4757 601.477 69.3583C600.092 74.1433 598.085 78.4487 595.449 82.262L595.445 82.2672C592.743 86.1412 589.5 89.5127 585.72 92.3782C582.431 94.9217 578.784 97.1518 574.783 99.0711ZM562.752 35.4454C560.439 33.4979 557.603 31.9998 554.244 30.9511C550.886 29.9025 547.042 29.3782 542.713 29.3782H519.54V80.6125H542.825C547.676 80.6125 551.931 79.9384 555.588 78.5901C559.319 77.1669 562.342 75.1445 564.655 72.5229C566.596 70.4256 568.051 67.9163 569.021 64.995C570.066 62.0738 570.589 58.8154 570.589 55.22C570.589 50.8756 569.917 47.0555 568.574 43.7597C567.305 40.389 565.364 37.6176 562.752 35.4454ZM555.061 77.1716C558.593 75.8229 561.398 73.9306 563.526 71.5191L563.538 71.5058L563.55 71.4928C565.333 69.5656 566.683 67.2483 567.59 64.5163L567.596 64.4999L567.602 64.4835C568.579 61.7501 569.08 58.6682 569.08 55.22C569.08 51.0301 568.432 47.4115 567.177 44.3329L567.17 44.3139L567.162 44.2947C565.981 41.1549 564.189 38.6058 561.79 36.6111L561.783 36.6053C559.646 34.8061 556.995 33.3954 553.796 32.3966C550.612 31.4023 546.924 30.892 542.713 30.892H521.048V79.0987H542.825C547.538 79.0987 551.607 78.4437 555.061 77.1716ZM770 31.0044H719.735V168.865H685.149V31.0044H635.555V2.24712H770V31.0044ZM637.064 29.4905V3.76097H768.492V29.4905H718.227V167.351H686.657V29.4905H637.064Z" fill="#FFBE2E" fill-opacity="0.2"/>
</svg>
