<svg width="94" height="35" viewBox="0 0 94 35" fill="none" xmlns="http://www.w3.org/2000/svg">
<path d="M71.1709 11.1204C71.1709 4.97469 75.4053 0 82.265 0C89.1601 0 93.3945 4.97469 93.3945 11.1204C93.3945 17.266 89.1601 22.2398 82.265 22.2398C75.4043 22.2398 71.1709 17.2613 71.1709 11.1204ZM75.5453 11.1204C75.5009 12.0363 75.643 12.9517 75.9627 13.8093C76.2824 14.667 76.7728 15.4486 77.4034 16.1053C78.0339 16.762 78.7911 17.2797 79.6275 17.6261C80.464 17.9725 81.3618 18.1402 82.265 18.1187C83.1725 18.1448 84.0757 17.9808 84.9181 17.637C85.7605 17.2931 86.5241 16.7768 87.1612 16.1202C87.7983 15.4636 88.2954 14.6807 88.6213 13.8205C88.9472 12.9603 89.0951 12.0411 89.0556 11.1204C89.0951 10.1996 88.9472 9.28041 88.6213 8.4202C88.2954 7.55998 87.7983 6.77715 87.1612 6.12053C86.5241 5.46391 85.7605 4.94758 84.9181 4.60374C84.0757 4.25991 83.1725 4.09593 82.265 4.12205C81.3618 4.1005 80.464 4.26816 79.6275 4.61457C78.7911 4.96097 78.0339 5.47868 77.4034 6.13538C76.7728 6.79208 76.2824 7.57367 75.9627 8.43136C75.643 9.28905 75.5009 10.2044 75.5453 11.1204ZM22.0397 12.6835V0.462322H26.275V12.6835C26.275 15.6327 27.9903 18.1196 31.4547 18.1196C34.9546 18.1196 36.5645 15.6678 36.5645 12.6835V0.462322H40.7998V12.6835C40.7998 18.1907 37.3354 22.2407 31.4557 22.2407C25.645 22.2398 22.0397 18.1907 22.0397 12.6826V12.6835ZM62.9421 21.7784V9.20191L56.4343 15.8838L49.8872 9.20191V21.7784H45.6529V0.462322H46.8074L56.3624 10.0185L66.022 0.462322H67.1419V21.7784H62.9421ZM14.0003 21.7784C12.7049 19.8599 9.90596 15.6678 7.94512 12.6835L4.34074 16.4854V21.7784H0.105469V0.462322H4.34074V10.5159L13.9294 0.461374H19.5441L19.1101 0.922749L10.9204 9.55623L19.4321 21.7774L14.0003 21.7784Z" fill="white"/>
<path d="M5.57 28.0348V29.7227H3.71657V34.8254H1.84373V29.7227H0V28.0348H5.57Z" fill="white"/>
<path d="M10.8909 33.2053H13.4527V34.8254H9.02775V28.0348H13.3751V29.6548H10.8909V30.654H13.1228V32.1868H10.8909V33.2053Z" fill="white"/>
<path d="M20.3096 35C19.281 35 18.4206 34.6605 17.7284 33.9814C17.0426 33.3024 16.6998 32.4551 16.6998 31.4398C16.6998 30.418 17.0426 29.5675 17.7284 28.8885C18.4206 28.2029 19.281 27.8602 20.3096 27.8602C21.2023 27.8602 21.9625 28.1286 22.59 28.6653C23.224 29.2021 23.6089 29.9006 23.7448 30.7607H21.8525C21.7749 30.5279 21.6617 30.3274 21.5129 30.1593C21.3641 29.9847 21.1862 29.8489 20.9792 29.7518C20.7721 29.6548 20.5522 29.6063 20.3193 29.6063C19.8341 29.6063 19.433 29.7809 19.116 30.1302C18.8055 30.4729 18.6502 30.9095 18.6502 31.4398C18.6502 31.7826 18.7214 32.093 18.8637 32.3711C19.006 32.6427 19.2034 32.8561 19.4557 33.0113C19.7144 33.1665 20.0023 33.2441 20.3193 33.2441C20.5651 33.2441 20.7916 33.1924 20.9986 33.0889C21.2121 32.9855 21.39 32.8399 21.5323 32.6524C21.6811 32.4648 21.7878 32.2482 21.8525 32.0024H23.7642C23.6348 32.8949 23.2531 33.6192 22.6191 34.1754C21.9851 34.7251 21.2153 35 20.3096 35Z" fill="white"/>
<path d="M31.2087 28.0348H33.101V34.8254H31.2087V32.2159H29.1709V34.8254H27.2884V28.0348H29.1709V30.4891H31.2087V28.0348Z" fill="white"/>
<path d="M41.2753 28.0348H43.0899V34.8254H41.547L38.8493 31.1391V34.8254H37.0347V28.0348H38.6649L41.2753 31.595V28.0348Z" fill="white"/>
<path d="M50.414 35C49.3207 35 48.4215 34.6669 47.7163 34.0008C47.0177 33.3282 46.6683 32.4713 46.6683 31.4301C46.6683 30.3889 47.0177 29.5352 47.7163 28.8691C48.4215 28.1965 49.3207 27.8602 50.414 27.8602C51.5008 27.8602 52.3936 28.1965 53.0923 28.8691C53.7909 29.5352 54.1403 30.3889 54.1403 31.4301C54.1403 32.4713 53.7909 33.3282 53.0923 34.0008C52.3936 34.6669 51.5008 35 50.414 35ZM49.1234 32.7397C49.4663 33.0825 49.8965 33.2538 50.414 33.2538C50.9315 33.2538 51.3553 33.0825 51.6852 32.7397C52.0216 32.3969 52.1898 31.9604 52.1898 31.4301C52.1898 30.8998 52.0216 30.4632 51.6852 30.1205C51.3553 29.7777 50.9315 29.6063 50.414 29.6063C49.8965 29.6063 49.4663 29.7777 49.1234 30.1205C48.787 30.4632 48.6188 30.8998 48.6188 31.4301C48.6188 31.9604 48.787 32.3969 49.1234 32.7397Z" fill="white"/>
<path d="M59.6135 33.1083H62.0298V34.8254H57.7213V28.0348H59.6135V33.1083Z" fill="white"/>
<path d="M68.6936 35C67.6003 35 66.7011 34.6669 65.9959 34.0008C65.2973 33.3282 64.9479 32.4713 64.9479 31.4301C64.9479 30.3889 65.2973 29.5352 65.9959 28.8691C66.7011 28.1965 67.6003 27.8602 68.6936 27.8602C69.7804 27.8602 70.6732 28.1965 71.3719 28.8691C72.0705 29.5352 72.4199 30.3889 72.4199 31.4301C72.4199 32.4713 72.0705 33.3282 71.3719 34.0008C70.6732 34.6669 69.7804 35 68.6936 35ZM67.403 32.7397C67.7459 33.0825 68.1761 33.2538 68.6936 33.2538C69.2111 33.2538 69.6349 33.0825 69.9648 32.7397C70.3012 32.3969 70.4694 31.9604 70.4694 31.4301C70.4694 30.8998 70.3012 30.4632 69.9648 30.1205C69.6349 29.7777 69.2111 29.6063 68.6936 29.6063C68.1761 29.6063 67.7459 29.7777 67.403 30.1205C67.0666 30.4632 66.8984 30.8998 66.8984 31.4301C66.8984 31.9604 67.0666 32.3969 67.403 32.7397Z" fill="white"/>
<path d="M79.1158 31.1973H82.8421C82.8421 31.9281 82.6933 32.5845 82.3957 33.1665C82.0981 33.7421 81.6776 34.1916 81.1342 34.515C80.5908 34.8383 79.9698 35 79.2711 35C78.2231 35 77.3562 34.6637 76.6705 33.9911C75.9912 33.3185 75.6516 32.4681 75.6516 31.4398C75.6516 30.405 75.988 29.5514 76.6608 28.8788C77.34 28.1997 78.2037 27.8602 79.2517 27.8602C80.138 27.8602 80.911 28.1124 81.5709 28.6168C82.2307 29.1213 82.6319 29.768 82.7742 30.557H80.814C80.6911 30.2725 80.4873 30.0461 80.2027 29.878C79.9245 29.7033 79.614 29.616 79.2711 29.616C78.76 29.616 78.346 29.7842 78.029 30.1205C77.7185 30.4568 77.5632 30.8965 77.5632 31.4398C77.5632 31.789 77.6311 32.1027 77.767 32.3808C77.9093 32.6524 78.1099 32.8658 78.3686 33.021C78.6274 33.1698 78.9282 33.2441 79.2711 33.2441C79.6269 33.2441 79.9439 33.1665 80.2221 33.0113C80.5067 32.8496 80.7008 32.6362 80.8043 32.3711H79.1158V31.1973Z" fill="white"/>
<path d="M90.41 32.2775L90.4331 34.8033C90.4331 34.8418 90.4177 34.8764 90.387 34.9071C90.3562 34.9302 90.3216 34.9417 90.2832 34.9417H88.4839C88.4455 34.9417 88.4109 34.9302 88.3801 34.9071C88.3494 34.8764 88.334 34.8418 88.334 34.8033V32.289L85.7159 28.2177C85.6774 28.1562 85.6582 28.11 85.6582 28.0793C85.6582 28.0331 85.6813 28.0101 85.7274 28.0101H87.8265C87.9495 28.0101 88.0418 28.0562 88.1033 28.1485L89.026 29.6709L89.3489 30.2937H89.3951C89.472 30.1015 89.5796 29.8939 89.718 29.6709L90.6407 28.1485C90.7022 28.0562 90.7945 28.0101 90.9175 28.0101H93.0051C93.0589 28.0101 93.0858 28.0331 93.0858 28.0793C93.0858 28.1023 93.0666 28.1446 93.0282 28.2061L90.41 32.2775Z" fill="white"/>
<path d="M71.1777 11.1204C71.1777 4.97469 75.4121 0 82.2718 0C89.1669 0 93.4013 4.97469 93.4013 11.1204C93.4013 17.266 89.1669 22.2398 82.2718 22.2398C75.4111 22.2398 71.1777 17.2613 71.1777 11.1204ZM75.5521 11.1204C75.5077 12.0363 75.6498 12.9517 75.9695 13.8093C76.2892 14.667 76.7796 15.4486 77.4102 16.1053C78.0407 16.762 78.7979 17.2797 79.6343 17.6261C80.4708 17.9725 81.3686 18.1402 82.2718 18.1187C83.1793 18.1448 84.0825 17.9808 84.9249 17.637C85.7673 17.2931 86.5309 16.7768 87.168 16.1202C87.8051 15.4636 88.3022 14.6807 88.6281 13.8205C88.954 12.9603 89.1019 12.0411 89.0624 11.1204C89.1019 10.1996 88.954 9.28041 88.6281 8.42019C88.3022 7.55998 87.8051 6.77715 87.168 6.12053C86.5309 5.46391 85.7673 4.94758 84.9249 4.60374C84.0825 4.25991 83.1793 4.09593 82.2718 4.12205C81.3686 4.1005 80.4708 4.26816 79.6343 4.61457C78.7979 4.96097 78.0407 5.47868 77.4102 6.13538C76.7796 6.79208 76.2892 7.57366 75.9695 8.43136C75.6498 9.28905 75.5077 10.2044 75.5521 11.1204Z" fill="#FFBE2E"/>
</svg>
