<svg width="31" height="40" viewBox="0 0 31 40" fill="none" xmlns="http://www.w3.org/2000/svg">
<path d="M7.44838 31.2078C9.34901 33.8876 11.2466 36.2843 12.5042 37.828C12.6872 38.0526 12.8588 38.261 13.0249 38.4617H9.22985C8.80503 38.4617 8.46071 38.806 8.46071 39.2309C8.46071 39.6557 8.80503 40 9.22985 40H21.5364C21.9612 40 22.3055 39.6557 22.3055 39.2309C22.3055 38.806 21.9612 38.4617 21.5364 38.4617H17.7414C17.9075 38.261 18.079 38.0525 18.2629 37.828C19.5197 36.2896 21.4165 33.8876 23.3179 31.2078C25.2043 28.6024 26.9023 25.8657 28.3989 23.0185C29.9696 19.9341 30.7665 17.3736 30.7665 15.4076C30.7717 11.3226 29.1507 7.40341 26.2614 4.51543C26.0685 4.31533 25.7826 4.23492 25.5136 4.30514C25.2446 4.37536 25.0344 4.5852 24.9638 4.85407C24.8933 5.12295 24.9732 5.40896 25.173 5.60221C27.7737 8.20211 29.2327 11.7302 29.2281 15.4075C29.2281 17.129 28.4882 19.4549 27.0283 22.32C25.5655 25.1012 23.906 27.7745 22.0626 30.3194C20.1874 32.9646 18.3129 35.3343 17.0707 36.8573C16.6577 37.3634 16.2862 37.811 15.9693 38.1895C15.8214 38.3584 15.6077 38.4552 15.3832 38.4552C15.1587 38.4552 14.9451 38.3583 14.7971 38.1895C14.4802 37.8111 14.1088 37.3634 13.6957 36.8573C12.4535 35.3352 10.579 32.9653 8.70381 30.3194C6.86042 27.7745 5.20092 25.1012 3.73809 22.32C2.2767 19.4549 1.5383 17.129 1.5383 15.4075C1.53785 9.83629 4.86966 4.80504 9.99916 2.63094C13.4458 1.18569 17.3285 1.18569 20.7752 2.63094C21.0283 2.7382 21.3193 2.70242 21.5388 2.53684C21.7583 2.37135 21.8728 2.1013 21.8392 1.82845C21.8055 1.55561 21.629 1.32144 21.3759 1.21417C13.5432 -2.08952 4.51525 1.58031 1.20912 9.41193C0.407355 11.3089 -0.00384873 13.3481 2.71463e-05 15.4075C2.71463e-05 17.3735 0.796926 19.9341 2.36756 23.0223C3.86401 25.8682 5.56209 28.6037 7.44838 31.2078Z" fill="#FFBE2E"/>
<path d="M15.384 8.46454C15.8088 8.46454 16.1531 8.12022 16.1531 7.69541C16.1531 7.27059 15.8088 6.92627 15.384 6.92627C11.7145 6.92618 8.55594 9.51833 7.83999 13.1173C7.12403 16.7163 9.05016 20.3198 12.4403 21.7241C15.8304 23.1284 19.7405 21.9423 21.7792 18.8913C23.8179 15.8403 23.4174 11.7739 20.8227 9.17915C20.6296 8.97922 20.3437 8.899 20.0747 8.9694C19.8058 9.03979 19.5958 9.24981 19.5254 9.51869C19.455 9.78766 19.5352 10.0736 19.7351 10.2667C21.811 12.3425 22.1314 15.5954 20.5006 18.0363C18.8697 20.4772 15.7417 21.4262 13.0296 20.3029C10.3175 19.1796 8.77651 16.2969 9.34905 13.4176C9.9216 10.5384 12.4484 8.46463 15.384 8.46454Z" fill="#FFBE2E"/>
</svg>
