<svg width="40" height="31" viewBox="0 0 40 31" fill="none" xmlns="http://www.w3.org/2000/svg">
<path d="M38 0H2C0.895469 0 0 0.895391 0 2V28.6666C0 29.7712 0.895391 30.6666 2 30.6666H38C39.1045 30.6666 40 29.7712 40 28.6666V2C40 0.895469 39.1046 0 38 0ZM38.6666 28.6667C38.6666 29.0349 38.3682 29.3334 38 29.3334H2C1.6318 29.3334 1.33336 29.0349 1.33336 28.6667V2C1.33336 1.6318 1.6318 1.33336 2 1.33336H38C38.3682 1.33336 38.6666 1.6318 38.6666 2V28.6667Z" fill="#FFBE2E"/>
<path d="M36.726 2.66957C36.5499 2.65418 36.3748 2.70941 36.2394 2.82316L20.8593 15.7431C20.3633 16.16 19.6393 16.16 19.1433 15.7431L3.76337 2.82308C3.58095 2.66996 3.33063 2.62574 3.10681 2.70714C2.88298 2.78855 2.71954 2.98324 2.67813 3.21785C2.63673 3.45246 2.7236 3.69128 2.90603 3.84441L18.286 16.7637C19.2773 17.5983 20.7254 17.5983 21.7167 16.7637L37.0966 3.84449C37.2321 3.73082 37.3168 3.568 37.3322 3.39183C37.3476 3.21566 37.2924 3.04058 37.1786 2.90519C37.065 2.76964 36.9022 2.68496 36.726 2.66957Z" fill="#FFBE2E"/>
<path d="M12.8222 16.6715C12.5862 16.6189 12.3402 16.6981 12.1793 16.8786L2.84593 26.8786C2.67703 27.0515 2.615 27.3025 2.6839 27.5342C2.75281 27.766 2.94179 27.9422 3.17773 27.9949C3.41375 28.0476 3.65968 27.9683 3.82062 27.7879L13.154 17.7879C13.3229 17.6149 13.3849 17.364 13.316 17.1322C13.2471 16.9005 13.0582 16.7242 12.8222 16.6715Z" fill="#FFBE2E"/>
<path d="M27.8206 16.8786C27.6598 16.6981 27.4137 16.6189 27.1777 16.6715C26.9417 16.7242 26.7528 16.9005 26.6839 17.1322C26.615 17.364 26.677 17.6149 26.8459 17.7879L36.1793 27.7879C36.4324 28.0471 36.8462 28.0568 37.1111 27.8096C37.376 27.5624 37.3951 27.149 37.154 26.8785L27.8206 16.8786Z" fill="#FFBE2E"/>
</svg>
