<svg width="40" height="40" viewBox="0 0 40 40" fill="none" xmlns="http://www.w3.org/2000/svg">
<path d="M38.9504 30.8565L30.8542 25.4573C29.8268 24.7776 28.4496 25.0012 27.69 25.9712L25.3317 29.0034C25.0286 29.403 24.4777 29.5189 24.0392 29.2754L23.5906 29.0281C22.1035 28.2175 20.2532 27.2083 16.525 23.4789C12.7969 19.7494 11.7857 17.8977 10.9751 16.4133L10.7292 15.9647C10.4823 15.5263 10.596 14.973 10.9958 14.6675L14.0259 12.3099C14.9955 11.5502 15.2194 10.1734 14.5406 9.14568L9.14136 1.04954C8.4456 0.00297294 7.04971 -0.311199 5.97261 0.336283L2.58709 2.36997C1.52334 2.99534 0.742912 4.00816 0.409446 5.19619C-0.809671 9.63819 0.107458 17.3044 11.4005 28.5987C20.3838 37.5814 27.0715 39.9971 31.6682 39.9971C32.7261 40.0016 33.7798 39.8639 34.8011 39.5878C35.9893 39.2547 37.0023 38.4742 37.6273 37.4102L39.663 34.0267C40.3114 32.9493 39.9974 31.5526 38.9504 30.8565ZM38.5144 33.3427L36.4834 36.7282C36.0346 37.4963 35.3061 38.0609 34.4503 38.304C30.3496 39.4299 23.1854 38.4974 12.3436 27.6556C1.50186 16.8138 0.569422 9.65022 1.69527 5.54887C1.93867 4.69212 2.50406 3.96262 3.27301 3.51316L6.65852 1.48213C7.12587 1.20092 7.73172 1.33723 8.03363 1.79138L10.9666 6.19471L13.4282 9.88682C13.723 10.3326 13.6262 10.9301 13.2056 11.26L10.1747 13.6176C9.25236 14.3229 8.98896 15.599 9.55684 16.6118L9.79751 17.0491C10.6494 18.6115 11.7086 20.5552 15.5753 24.4214C19.4421 28.2875 21.3852 29.3467 22.9469 30.1985L23.3848 30.4398C24.3975 31.0076 25.6738 30.7443 26.379 29.8219L28.7367 26.791C29.0666 26.3707 29.6639 26.2739 30.1098 26.5684L38.2053 31.9676C38.6597 32.2693 38.796 32.8755 38.5144 33.3427Z" fill="#FFBE2E"/>
<path d="M22.6665 6.66866C28.9219 6.67561 33.9912 11.7449 33.9982 18.0003C33.9982 18.3685 34.2966 18.6669 34.6648 18.6669C35.0329 18.6669 35.3313 18.3685 35.3313 18.0003C35.3236 11.009 29.6579 5.34323 22.6665 5.33557C22.2984 5.33557 22 5.63397 22 6.00211C22 6.37026 22.2984 6.66866 22.6665 6.66866Z" fill="#FFBE2E"/>
<path d="M22.6665 10.668C26.7141 10.6728 29.9941 13.9528 29.9988 18.0003C29.9988 18.3685 30.2973 18.6669 30.6654 18.6669C31.0335 18.6669 31.3319 18.3685 31.3319 18.0003C31.3264 13.2168 27.45 9.34043 22.6665 9.33496C22.2984 9.33496 22 9.63335 22 10.0015C22 10.3697 22.2984 10.668 22.6665 10.668Z" fill="#FFBE2E"/>
<path d="M22.6665 14.6676C24.5063 14.6697 25.9971 16.1606 25.9994 18.0004C25.9994 18.3686 26.2979 18.667 26.666 18.667C27.034 18.667 27.3325 18.3686 27.3325 18.0004C27.3295 15.4247 25.2423 13.3374 22.6665 13.3345C22.2984 13.3345 22 13.6329 22 14.001C22 14.3692 22.2984 14.6676 22.6665 14.6676Z" fill="#FFBE2E"/>
</svg>
