<svg width="40" height="40" viewBox="0 0 40 40" fill="none" xmlns="http://www.w3.org/2000/svg">
<path d="M39 20C39 30.4934 30.4934 39 20 39C9.50659 39 1 30.4934 1 20C1 9.50659 9.50659 1 20 1C30.4934 1 39 9.50659 39 20Z" stroke="white" stroke-width="2" stroke-linecap="round" stroke-linejoin="round"/>
<path d="M27.9297 16.0625C28.7109 15.4766 29.4141 14.7734 30 13.9141C29.2188 14.2656 28.4375 14.5 27.6562 14.5781C28.5156 14.0312 29.1406 13.2891 29.4531 12.3125C28.6328 12.7812 27.7734 13.1328 26.8359 13.2891C26.4453 12.8984 25.9766 12.5859 25.4688 12.3516C24.9609 12.1172 24.4141 12 23.8281 12C23.0859 12 22.4219 12.1953 21.7969 12.5469C21.1719 12.9375 20.6641 13.4453 20.3125 14.0703C19.9219 14.6953 19.7656 15.3984 19.7656 16.1016C19.7656 16.4141 19.7656 16.7266 19.8438 17.0391C18.1641 16.9609 16.6016 16.5703 15.1172 15.7891C13.6328 15.0469 12.4219 14.0312 11.4062 12.7422C11.0156 13.4062 10.8203 14.1094 10.8203 14.8125C10.8203 15.5156 10.9766 16.1797 11.3281 16.7656C11.6406 17.3906 12.1094 17.8594 12.6562 18.25C11.9922 18.25 11.3672 18.0547 10.8203 17.7031V17.7812C10.8203 18.7578 11.1328 19.6172 11.7578 20.3594C12.3828 21.1406 13.1641 21.6094 14.1016 21.8047C13.7109 21.8828 13.3594 21.9219 13.0078 21.9219C12.7734 21.9219 12.5 21.9219 12.2656 21.8828C12.5 22.7031 12.9688 23.3672 13.6719 23.9141C14.375 24.4609 15.1562 24.6953 16.0938 24.6953C14.5703 25.8672 12.8516 26.4531 10.9766 26.4531C10.5859 26.4531 10.2734 26.4531 10 26.4141C11.875 27.6641 13.9844 28.25 16.2891 28.25C18.6719 28.25 20.7812 27.6641 22.6562 26.4141C24.3359 25.3203 25.6641 23.875 26.6016 22C27.5 20.2812 27.9688 18.4453 27.9688 16.5703C27.9688 16.3359 27.9297 16.1797 27.9297 16.0625Z" fill="white"/>
</svg>
