<svg width="40" height="40" viewBox="0 0 40 40" fill="none" xmlns="http://www.w3.org/2000/svg">
<path d="M39 20C39 30.4934 30.4934 39 20 39C9.50659 39 1 30.4934 1 20C1 9.50659 9.50659 1 20 1C30.4934 1 39 9.50659 39 20Z" stroke="white" stroke-width="2" stroke-linecap="round" stroke-linejoin="round"/>
<path d="M14.9062 27.25V15.5703H11.2734V27.25H14.9062ZM13.1094 13.9688C13.6562 13.9688 14.1641 13.7734 14.5938 13.3438C14.9844 12.9531 15.2188 12.4453 15.2188 11.8594C15.2188 11.3125 14.9844 10.8047 14.5938 10.375C14.1641 9.98438 13.6562 9.75 13.1094 9.75C12.5234 9.75 12.0156 9.98438 11.625 10.375C11.1953 10.8047 11 11.3125 11 11.8594C11 12.4453 11.1953 12.9531 11.625 13.3438C12.0156 13.7734 12.5234 13.9688 13.1094 13.9688ZM28.5 27.25V20.8438C28.5 19.0469 28.2266 17.7188 27.7188 16.8594C27.0156 15.8047 25.8438 15.2578 24.1641 15.2578C23.3047 15.2578 22.6016 15.4922 21.9766 15.8828C21.3906 16.2344 20.9609 16.6641 20.7266 17.1719H20.6875V15.5703H17.2109V27.25H20.8047V21.4688C20.8047 20.5703 20.9219 19.8672 21.1953 19.3984C21.5078 18.7734 22.0938 18.4609 22.9531 18.4609C23.7734 18.4609 24.3203 18.8125 24.6328 19.5156C24.7891 19.9453 24.8672 20.6094 24.8672 21.5469V27.25H28.5Z" fill="white"/>
</svg>
